<svg width="169" height="24" viewBox="0 0 169 24" fill="none" xmlns="http://www.w3.org/2000/svg">
<path d="M7.29599 23.0001V4.82406H0.127991V0.600063H19.648V4.82406H12.48V23.0001H7.29599Z" fill="#ffffff" stroke="black" stroke-width="1"/>
<path d="M33.0047 23.3841C31.2341 23.3841 29.5914 23.0961 28.0767 22.5201C26.5834 21.9441 25.2821 21.1334 24.1727 20.0881C23.0847 19.0427 22.2314 17.8161 21.6127 16.4081C21.0154 15.0001 20.7167 13.4641 20.7167 11.8001C20.7167 10.1361 21.0154 8.60006 21.6127 7.19206C22.2314 5.78406 23.0954 4.5574 24.2047 3.51206C25.3141 2.46673 26.6154 1.65606 28.1087 1.08006C29.6021 0.504064 31.2234 0.216064 32.9727 0.216064C34.7434 0.216064 36.3647 0.504064 37.8367 1.08006C39.3301 1.65606 40.6207 2.46673 41.7087 3.51206C42.8181 4.5574 43.6821 5.78406 44.3007 7.19206C44.9194 8.57873 45.2287 10.1147 45.2287 11.8001C45.2287 13.4641 44.9194 15.0107 44.3007 16.4401C43.6821 17.8481 42.8181 19.0747 41.7087 20.1201C40.6207 21.1441 39.3301 21.9441 37.8367 22.5201C36.3647 23.0961 34.7541 23.3841 33.0047 23.3841ZM32.9727 18.9681C33.9754 18.9681 34.8927 18.7974 35.7247 18.4561C36.5781 18.1147 37.3247 17.6241 37.9647 16.9841C38.6047 16.3441 39.0954 15.5867 39.4367 14.7121C39.7994 13.8374 39.9807 12.8667 39.9807 11.8001C39.9807 10.7334 39.7994 9.76273 39.4367 8.88806C39.0954 8.0134 38.6047 7.25606 37.9647 6.61606C37.3461 5.97606 36.6101 5.4854 35.7567 5.14406C34.9034 4.80273 33.9754 4.63206 32.9727 4.63206C31.9701 4.63206 31.0421 4.80273 30.1887 5.14406C29.3567 5.4854 28.6207 5.97606 27.9807 6.61606C27.3407 7.25606 26.8394 8.0134 26.4767 8.88806C26.1354 9.76273 25.9647 10.7334 25.9647 11.8001C25.9647 12.8454 26.1354 13.8161 26.4767 14.7121C26.8394 15.5867 27.3301 16.3441 27.9487 16.9841C28.5887 17.6241 29.3354 18.1147 30.1887 18.4561C31.0421 18.7974 31.9701 18.9681 32.9727 18.9681Z" fill="#ffffff" stroke="black" stroke-width="1"/>
<path d="M53.4522 23.0001V4.82406H46.2842V0.600063H65.8042V4.82406H58.6362V23.0001H53.4522Z" fill="#ffffff" stroke="black" stroke-width="1"/>
<path d="M73.3615 9.62406H84.1455V13.6561H73.3615V9.62406ZM73.7455 18.8401H85.9375V23.0001H68.5935V0.600063H85.5215V4.76006H73.7455V18.8401Z" fill="#ffffff" stroke="black" stroke-width="1"/>
<path d="M90.0622 23.0001V0.600063H94.3502L103.886 16.4081H101.614L110.99 0.600063H115.246L115.31 23.0001H110.446L110.414 8.05606H111.31L103.822 20.6321H101.486L93.8382 8.05606H94.9262V23.0001H90.0622Z" fill="#ffffff" stroke="black" stroke-width="1"/>
<path d="M120.625 23.0001V0.600063H131.569C134.385 0.600063 136.497 1.1334 137.905 2.20006C139.334 3.26673 140.049 4.67473 140.049 6.42406C140.049 7.5974 139.761 8.6214 139.185 9.49606C138.609 10.3494 137.819 11.0107 136.817 11.4801C135.814 11.9494 134.662 12.1841 133.361 12.1841L133.969 10.8721C135.377 10.8721 136.625 11.1067 137.713 11.5761C138.801 12.0241 139.643 12.6961 140.241 13.5921C140.859 14.4881 141.169 15.5867 141.169 16.8881C141.169 18.8081 140.411 20.3121 138.897 21.4001C137.382 22.4667 135.153 23.0001 132.209 23.0001H120.625ZM125.777 19.0961H131.825C133.169 19.0961 134.182 18.8827 134.865 18.4561C135.569 18.0081 135.921 17.3041 135.921 16.3441C135.921 15.4054 135.569 14.7121 134.865 14.2641C134.182 13.7947 133.169 13.5601 131.825 13.5601H125.393V9.78406H130.929C132.187 9.78406 133.147 9.57073 133.809 9.14406C134.491 8.69606 134.833 8.02406 134.833 7.12806C134.833 6.2534 134.491 5.60273 133.809 5.17606C133.147 4.72806 132.187 4.50406 130.929 4.50406H125.777V19.0961Z" fill="#ffffff" stroke="black" stroke-width="1"/>
<path d="M155.973 23.3841C154.203 23.3841 152.56 23.0961 151.045 22.5201C149.552 21.9441 148.251 21.1334 147.141 20.0881C146.053 19.0427 145.2 17.8161 144.581 16.4081C143.984 15.0001 143.685 13.4641 143.685 11.8001C143.685 10.1361 143.984 8.60006 144.581 7.19206C145.2 5.78406 146.064 4.5574 147.173 3.51206C148.283 2.46673 149.584 1.65606 151.077 1.08006C152.571 0.504064 154.192 0.216064 155.941 0.216064C157.712 0.216064 159.333 0.504064 160.805 1.08006C162.299 1.65606 163.589 2.46673 164.677 3.51206C165.787 4.5574 166.651 5.78406 167.269 7.19206C167.888 8.57873 168.197 10.1147 168.197 11.8001C168.197 13.4641 167.888 15.0107 167.269 16.4401C166.651 17.8481 165.787 19.0747 164.677 20.1201C163.589 21.1441 162.299 21.9441 160.805 22.5201C159.333 23.0961 157.723 23.3841 155.973 23.3841ZM155.941 18.9681C156.944 18.9681 157.861 18.7974 158.693 18.4561C159.547 18.1147 160.293 17.6241 160.933 16.9841C161.573 16.3441 162.064 15.5867 162.405 14.7121C162.768 13.8374 162.949 12.8667 162.949 11.8001C162.949 10.7334 162.768 9.76273 162.405 8.88806C162.064 8.0134 161.573 7.25606 160.933 6.61606C160.315 5.97606 159.579 5.4854 158.725 5.14406C157.872 4.80273 156.944 4.63206 155.941 4.63206C154.939 4.63206 154.011 4.80273 153.157 5.14406C152.325 5.4854 151.589 5.97606 150.949 6.61606C150.309 7.25606 149.808 8.0134 149.445 8.88806C149.104 9.76273 148.933 10.7334 148.933 11.8001C148.933 12.8454 149.104 13.8161 149.445 14.7121C149.808 15.5867 150.299 16.3441 150.917 16.9841C151.557 17.6241 152.304 18.1147 153.157 18.4561C154.011 18.7974 154.939 18.9681 155.941 18.9681Z" fill="#ffffff" stroke="black" stroke-width="1"/>
</svg>
